<svg width="32" height="33" viewBox="0 0 32 33" fill="none" xmlns="http://www.w3.org/2000/svg">
<path d="M5.33335 21.5833V5.58329H2.66669V2.91663H6.66669C7.02031 2.91663 7.35945 3.0571 7.6095 3.30715C7.85954 3.5572 8.00002 3.89634 8.00002 4.24996V20.25H24.584L27.2507 9.58329H10.6667V6.91663H28.96C29.1627 6.91663 29.3627 6.96284 29.5448 7.05174C29.727 7.14064 29.8864 7.26989 30.0111 7.42967C30.1358 7.58946 30.2224 7.77556 30.2644 7.97384C30.3064 8.17212 30.3026 8.37736 30.2534 8.57396L26.92 21.9073C26.8478 22.1956 26.6813 22.4515 26.447 22.6344C26.2126 22.8173 25.9239 22.9166 25.6267 22.9166H6.66669C6.31307 22.9166 5.97393 22.7762 5.72388 22.5261C5.47383 22.2761 5.33335 21.9369 5.33335 21.5833ZM8.00002 30.9166C7.29278 30.9166 6.6145 30.6357 6.1144 30.1356C5.61431 29.6355 5.33335 28.9572 5.33335 28.25C5.33335 27.5427 5.61431 26.8644 6.1144 26.3643C6.6145 25.8642 7.29278 25.5833 8.00002 25.5833C8.70726 25.5833 9.38554 25.8642 9.88564 26.3643C10.3857 26.8644 10.6667 27.5427 10.6667 28.25C10.6667 28.9572 10.3857 29.6355 9.88564 30.1356C9.38554 30.6357 8.70726 30.9166 8.00002 30.9166ZM24 30.9166C23.2928 30.9166 22.6145 30.6357 22.1144 30.1356C21.6143 29.6355 21.3334 28.9572 21.3334 28.25C21.3334 27.5427 21.6143 26.8644 22.1144 26.3643C22.6145 25.8642 23.2928 25.5833 24 25.5833C24.7073 25.5833 25.3855 25.8642 25.8856 26.3643C26.3857 26.8644 26.6667 27.5427 26.6667 28.25C26.6667 28.9572 26.3857 29.6355 25.8856 30.1356C25.3855 30.6357 24.7073 30.9166 24 30.9166Z" fill="black"/>
</svg>
