<svg width="32" height="33" viewBox="0 0 32 33" fill="none" xmlns="http://www.w3.org/2000/svg">
<path d="M16.0014 6.28864C19.1334 3.47664 23.9734 3.56997 26.9907 6.59264C30.0067 9.61664 30.1107 14.4326 27.3054 17.574L15.9987 28.8966L4.6947 17.574C1.88936 14.4326 1.9947 9.60864 5.00936 6.59264C8.02936 3.57397 12.86 3.47264 16.0014 6.28864ZM25.1027 8.47664C23.1027 6.47397 19.876 6.39264 17.7827 8.27264L16.0027 9.86997L14.2214 8.27397C12.1214 6.39131 8.90136 6.47397 6.89603 8.47931C4.90936 10.466 4.80936 13.646 6.64003 15.7473L16 25.122L25.36 15.7486C27.192 13.646 27.092 10.47 25.1027 8.47664Z" fill="black"/>
</svg>
