<svg width="32" height="33" viewBox="0 0 32 33" fill="none" xmlns="http://www.w3.org/2000/svg">
<path d="M24.0413 22.406L29.752 28.1153L27.8653 30.002L22.156 24.2913C20.0316 25.9943 17.3893 26.9205 14.6667 26.9166C8.04266 26.9166 2.66666 21.5406 2.66666 14.9166C2.66666 8.29263 8.04266 2.91663 14.6667 2.91663C21.2907 2.91663 26.6667 8.29263 26.6667 14.9166C26.6705 17.6393 25.7443 20.2816 24.0413 22.406ZM21.3667 21.4166C23.0588 19.6765 24.0038 17.3439 24 14.9166C24 9.75929 19.8227 5.58329 14.6667 5.58329C9.50932 5.58329 5.33332 9.75929 5.33332 14.9166C5.33332 20.0726 9.50932 24.25 14.6667 24.25C17.0939 24.2538 19.4265 23.3088 21.1667 21.6166L21.3667 21.4166Z" fill="black"/>
</svg>
