<svg width="32" height="33" viewBox="0 0 32 33" fill="none" xmlns="http://www.w3.org/2000/svg">
<path d="M11.9533 24.25C11.7948 25.3623 11.2403 26.3802 10.3916 27.1165C9.54284 27.8529 8.45694 28.2583 7.33331 28.2583C6.20969 28.2583 5.12379 27.8529 4.27507 27.1165C3.42636 26.3802 2.87182 25.3623 2.71331 24.25H1.33331V8.24996C1.33331 7.89634 1.47379 7.5572 1.72384 7.30715C1.97389 7.0571 2.31302 6.91663 2.66665 6.91663H21.3333C21.6869 6.91663 22.0261 7.0571 22.2761 7.30715C22.5262 7.5572 22.6666 7.89634 22.6666 8.24996V10.9166H26.6666L30.6666 16.3246V24.25H27.9533C27.7948 25.3623 27.2403 26.3802 26.3915 27.1165C25.5428 27.8529 24.4569 28.2583 23.3333 28.2583C22.2097 28.2583 21.1238 27.8529 20.2751 27.1165C19.4264 26.3802 18.8718 25.3623 18.7133 24.25H11.9533ZM20 9.58329H3.99998V20.3166C4.52606 19.7796 5.17411 19.3775 5.88898 19.1448C6.60385 18.912 7.36437 18.8554 8.10582 18.9798C8.84726 19.1042 9.54768 19.4059 10.1475 19.8592C10.7472 20.3125 11.2286 20.9039 11.5506 21.5833H19.116C19.34 21.1126 19.64 20.6846 20 20.3166V9.58329ZM22.6666 17.5833H28V17.2033L25.3226 13.5833H22.6666V17.5833ZM23.3333 25.5833C23.8639 25.5833 24.3728 25.3725 24.748 24.9973C25.1232 24.6221 25.334 24.1132 25.334 23.5826C25.334 23.052 25.1232 22.5431 24.748 22.1679C24.3728 21.7927 23.8639 21.582 23.3333 21.582C22.8027 21.582 22.2938 21.7927 21.9186 22.1679C21.5434 22.5431 21.3326 23.052 21.3326 23.5826C21.3326 24.1132 21.5434 24.6221 21.9186 24.9973C22.2938 25.3725 22.8027 25.5833 23.3333 25.5833ZM9.33331 23.5833C9.33331 23.3206 9.28158 23.0606 9.18107 22.8179C9.08056 22.5753 8.93324 22.3548 8.74753 22.1691C8.56181 21.9834 8.34133 21.836 8.09868 21.7355C7.85603 21.635 7.59596 21.5833 7.33331 21.5833C7.07067 21.5833 6.8106 21.635 6.56795 21.7355C6.32529 21.836 6.10482 21.9834 5.9191 22.1691C5.73338 22.3548 5.58606 22.5753 5.48555 22.8179C5.38504 23.0606 5.33331 23.3206 5.33331 23.5833C5.33331 24.1137 5.54403 24.6224 5.9191 24.9975C6.29417 25.3726 6.80288 25.5833 7.33331 25.5833C7.86375 25.5833 8.37245 25.3726 8.74753 24.9975C9.1226 24.6224 9.33331 24.1137 9.33331 23.5833Z" fill="black"/>
</svg>
