<svg width="32" height="33" viewBox="0 0 32 33" fill="none" xmlns="http://www.w3.org/2000/svg">
<path d="M26.6666 29.5834H24V26.9167C24 25.8558 23.5786 24.8384 22.8284 24.0883C22.0783 23.3381 21.0608 22.9167 20 22.9167H12C10.9391 22.9167 9.9217 23.3381 9.17155 24.0883C8.42141 24.8384 7.99998 25.8558 7.99998 26.9167V29.5834H5.33331V26.9167C5.33331 25.1486 6.03569 23.4529 7.28593 22.2027C8.53618 20.9524 10.2319 20.25 12 20.25H20C21.7681 20.25 23.4638 20.9524 24.714 22.2027C25.9643 23.4529 26.6666 25.1486 26.6666 26.9167V29.5834ZM16 17.5834C14.9494 17.5834 13.9091 17.3764 12.9385 16.9744C11.9679 16.5724 11.086 15.9831 10.3431 15.2402C9.60026 14.4974 9.01098 13.6154 8.60894 12.6448C8.20691 11.6742 7.99998 10.6339 7.99998 9.58337C7.99998 8.5328 8.20691 7.49251 8.60894 6.52191C9.01098 5.5513 9.60026 4.66939 10.3431 3.92652C11.086 3.18365 11.9679 2.59438 12.9385 2.19234C13.9091 1.7903 14.9494 1.58337 16 1.58337C18.1217 1.58337 20.1565 2.42623 21.6568 3.92652C23.1571 5.42681 24 7.46164 24 9.58337C24 11.7051 23.1571 13.7399 21.6568 15.2402C20.1565 16.7405 18.1217 17.5834 16 17.5834ZM16 14.9167C17.4145 14.9167 18.771 14.3548 19.7712 13.3546C20.7714 12.3544 21.3333 10.9979 21.3333 9.58337C21.3333 8.16889 20.7714 6.81233 19.7712 5.81214C18.771 4.81194 17.4145 4.25004 16 4.25004C14.5855 4.25004 13.2289 4.81194 12.2287 5.81214C11.2285 6.81233 10.6666 8.16889 10.6666 9.58337C10.6666 10.9979 11.2285 12.3544 12.2287 13.3546C13.2289 14.3548 14.5855 14.9167 16 14.9167Z" fill="black"/>
</svg>
