<svg width="48" height="48" viewBox="0 0 48 48" fill="none" xmlns="http://www.w3.org/2000/svg">
<path d="M10.3917 19.4835C10.4 18.5002 10.3917 17.5252 10.3917 16.5418V13.6002C10.3917 13.4918 10.425 13.4335 10.5083 13.3752C11.4667 12.7085 12.5167 12.3668 13.6917 12.4502C14.7333 12.5252 15.5833 13.0335 16.0333 14.2585C16.3083 15.0002 16.375 15.7752 16.375 16.5668C16.375 17.2918 16.3167 18.0085 16.0917 18.7002C15.6167 20.1835 14.5333 20.7585 13.1167 20.6918C12.1417 20.6502 11.2917 20.2752 10.5 19.7168C10.425 19.6502 10.3833 19.5835 10.3917 19.4835ZM23.3 20.7002C23.6833 20.8502 24.075 20.8668 24.475 20.8252C25.4417 20.7252 26.3 20.3502 27.0833 19.7835C27.1583 19.7335 27.1917 19.6752 27.1917 19.5752C27.1833 19.2502 27.1917 18.9168 27.1917 18.5918C27.1917 18.2585 27.1833 17.9252 27.1917 17.5918C27.1917 17.4752 27.1583 17.4252 27.0417 17.4085C26.4583 17.3335 25.8833 17.2252 25.3 17.1668C24.7167 17.1168 24.1333 17.1418 23.5667 17.3252C23.0083 17.5085 22.5917 17.8418 22.425 18.4168C22.2917 18.8668 22.2917 19.3168 22.4333 19.7668C22.5667 20.2252 22.8667 20.5335 23.3 20.7002ZM48 9.3335V38.6668C48 40.8752 46.2083 42.6668 44 42.6668H4C1.79167 42.6668 0 40.8752 0 38.6668V9.3335C0 7.12516 1.79167 5.3335 4 5.3335H44C46.2083 5.3335 48 7.12516 48 9.3335ZM30.7083 11.3252C30.7417 11.4668 30.7833 11.6085 30.8417 11.7502C32.2167 15.1335 33.5833 18.5252 34.9667 21.9085C35.0833 22.2002 35.1083 22.4418 34.9833 22.7335C34.75 23.2502 34.575 23.7835 34.3333 24.2918C34.1167 24.7502 33.775 25.0835 33.275 25.2252C32.925 25.3168 32.5667 25.3335 32.2 25.3002C32.025 25.2835 31.85 25.2418 31.675 25.2335C31.4417 25.2168 31.325 25.3252 31.3167 25.5668C31.3083 25.8002 31.3083 26.0335 31.3167 26.2585C31.325 26.6418 31.45 26.8168 31.8333 26.8835C32.225 26.9502 32.6167 27.0168 33.0167 27.0252C34.2083 27.0502 35.1583 26.5752 35.775 25.5335C36.0167 25.1252 36.2417 24.6918 36.4167 24.2502C38.0667 20.0752 39.7083 15.8918 41.35 11.7085C41.4 11.5835 41.4417 11.4585 41.4583 11.3252C41.4917 11.1252 41.4 11.0252 41.2 11.0168C40.7333 11.0085 40.275 11.0168 39.8083 11.0168C39.55 11.0168 39.3667 11.1335 39.275 11.3752C39.2417 11.4668 39.2 11.5668 39.1667 11.6585L36.7417 18.6335C36.5667 19.1418 36.3917 19.6418 36.2 20.1835C36.1667 20.1085 36.15 20.0668 36.1333 20.0252C35.2333 17.5335 34.3333 15.0335 33.4333 12.5418C33.2917 12.1502 33.1417 11.7502 32.9917 11.3585C32.9167 11.1502 32.7667 11.0252 32.5417 11.0252C32.0083 11.0168 31.475 11.0085 30.9417 11.0168C30.7583 11.0168 30.6667 11.1502 30.7083 11.3252ZM20.2 19.8335C20.3417 20.8085 20.8333 21.5668 21.7 22.0502C22.525 22.5085 23.425 22.5668 24.3417 22.4335C25.4 22.2752 26.3333 21.8252 27.1583 21.1418C27.1917 21.1168 27.225 21.0918 27.275 21.0585C27.3167 21.3252 27.35 21.5752 27.4 21.8252C27.4417 22.0418 27.575 22.1835 27.775 22.1918C28.1583 22.2002 28.5333 22.2002 28.9167 22.1918C29.1083 22.1835 29.2333 22.0585 29.25 21.8668C29.2583 21.8002 29.2583 21.7335 29.2583 21.6752V14.2752C29.2583 13.9752 29.2417 13.6752 29.2 13.3752C29.0667 12.4752 28.6833 11.7335 27.875 11.2585C27.4083 10.9835 26.8917 10.8418 26.3583 10.7668C26.1083 10.7335 25.8583 10.7085 25.6 10.6752H24.7667C24.7 10.6835 24.6333 10.7002 24.5583 10.7002C23.875 10.7335 23.2 10.8168 22.5417 10.9918C22.1167 11.1002 21.7083 11.2585 21.2917 11.4002C21.0417 11.4835 20.9167 11.6668 20.925 11.9418C20.9333 12.1752 20.9167 12.4085 20.925 12.6335C20.9333 12.9752 21.075 13.0668 21.4 12.9752C21.9417 12.8335 22.4917 12.6835 23.0417 12.5752C23.9 12.4168 24.7667 12.3502 25.6333 12.4752C26.0833 12.5418 26.5083 12.6752 26.8083 13.0585C27.0667 13.3918 27.1583 13.7918 27.175 14.2002C27.2 14.7752 27.1917 15.3585 27.2 15.9335C27.2 15.9668 27.1917 15.9918 27.1833 16.0335C27.15 16.0335 27.1167 16.0335 27.0917 16.0252C26.3583 15.8502 25.6167 15.7252 24.8583 15.6835C24.0667 15.6418 23.2833 15.6918 22.5333 15.9502C21.6333 16.2668 20.9083 16.8085 20.4833 17.6835C20.1417 18.3752 20.1 19.1002 20.2 19.8335ZM8.225 11.5752V26.1835C8.225 26.2502 8.225 26.3252 8.23333 26.3918C8.25 26.6002 8.375 26.7335 8.575 26.7418C9.06667 26.7502 9.55833 26.7502 10.05 26.7418C10.2583 26.7418 10.3833 26.6002 10.3917 26.4002C10.4 26.3335 10.4 26.2585 10.4 26.1918V21.1335C10.475 21.1918 10.5167 21.2335 10.5583 21.2668C11.8083 22.3085 13.2417 22.6502 14.8167 22.3418C16.2417 22.0585 17.225 21.1835 17.875 19.9085C18.3583 18.9418 18.5667 17.9002 18.6 16.8252C18.6417 15.6335 18.5167 14.4585 18.0333 13.3502C17.4417 11.9835 16.4583 11.0752 14.975 10.7752C14.75 10.7252 14.5167 10.7085 14.2917 10.6752H13.7083C13.6083 10.6918 13.5083 10.7002 13.4083 10.7168C12.4333 10.8335 11.55 11.2002 10.7583 11.7752C10.5917 11.8918 10.4333 12.0252 10.2667 12.1502C10.2583 12.1085 10.2417 12.0835 10.2333 12.0502C10.2 11.8585 10.175 11.6668 10.1417 11.4752C10.0917 11.1502 9.93333 11.0168 9.60833 11.0085H8.8C8.30833 11.0002 8.225 11.0918 8.225 11.5752ZM41.1333 30.9168C40.9083 30.8585 40.7083 30.9168 40.5 31.0002C36.8417 32.5335 33.0417 33.5168 29.1 33.9835C27.8917 34.1252 26.675 34.2168 25.4583 34.2502C23.2417 34.3085 21.025 34.1835 18.825 33.8918C17.3417 33.6918 15.8667 33.4168 14.4083 33.0668C11.325 32.3252 8.35 31.2585 5.51667 29.8335C4.78333 29.4668 4.06667 29.0585 3.34167 28.6668C3.025 28.4918 2.825 28.5418 2.65833 28.8418V28.9835C2.75833 29.1168 2.84167 29.2668 2.96667 29.3835C5.96667 32.0668 9.35 34.0918 13.1333 35.4585C14.9583 36.1168 16.8333 36.6002 18.7417 36.9168C19.9083 37.1085 21.075 37.2335 22.2583 37.2918C22.5083 37.3002 22.7583 37.3085 23.0083 37.3252C23.0667 37.3252 23.125 37.3418 23.1833 37.3502H24.6583C24.7167 37.3418 24.775 37.3252 24.8333 37.3252C26.075 37.2918 27.3167 37.1752 28.55 36.9918C30.3333 36.7252 32.0833 36.3168 33.7917 35.7668C36.2583 34.9668 38.6 33.9002 40.7417 32.4252C40.975 32.2668 41.2167 32.1085 41.4083 31.9085C41.7667 31.5418 41.6 31.0418 41.1333 30.9168ZM45.3333 28.6085C45.2667 28.2585 45 28.1252 44.7 28.0252C44.225 27.8668 43.7333 27.7918 43.2333 27.7502C42.3167 27.6752 41.4 27.7168 40.5 27.8835C39.5 28.0668 38.55 28.3918 37.7083 28.9752C37.6083 29.0418 37.5083 29.1252 37.45 29.2252C37.4 29.3002 37.3917 29.4168 37.4083 29.5085C37.4333 29.6168 37.55 29.6418 37.6583 29.6335C37.7083 29.6335 37.7583 29.6335 37.8083 29.6252L39.4333 29.4502C40.2333 29.3752 41.0333 29.3252 41.8333 29.3835C42.175 29.4085 42.5083 29.4835 42.8333 29.5668C43.1917 29.6585 43.35 29.9335 43.3667 30.2918C43.3917 30.8502 43.2667 31.3835 43.125 31.9168C42.8333 32.9918 42.4333 34.0335 42.0167 35.0668C41.9917 35.1335 41.9583 35.2085 41.95 35.2752C41.9167 35.4835 42.0333 35.6085 42.2333 35.5668C42.35 35.5418 42.4833 35.4752 42.5667 35.3918C42.875 35.0918 43.1917 34.7918 43.45 34.4585C44.3417 33.3085 44.8667 31.9918 45.175 30.5752C45.2333 30.3252 45.275 30.0668 45.3167 29.8168C45.3333 29.4252 45.3333 29.0168 45.3333 28.6085Z" fill="white"/>
</svg>
