<svg width="48" height="48" viewBox="0 0 48 48" fill="none" xmlns="http://www.w3.org/2000/svg">
<path d="M25.1833 20.8667C25.1833 22.3 24.3083 23.125 22.7667 23.125H20.7417V18.6083H22.775C24.3083 18.6083 25.1833 19.425 25.1833 20.8667ZM29.1417 26.0833C29.1417 26.775 29.7417 27.225 30.6833 27.225C31.8833 27.225 32.7833 26.4667 32.7833 25.4V24.7583L30.825 24.8833C29.7167 24.9583 29.1417 25.3667 29.1417 26.0833ZM48 9.25V38.5833C48 40.7917 46.2083 42.5833 44 42.5833H4C1.79167 42.5833 0 40.7917 0 38.5833V9.25C0 7.04167 1.79167 5.25 4 5.25H44C46.2083 5.25 48 7.04167 48 9.25ZM10.65 19.1C11.35 19.1583 12.05 18.75 12.4917 18.2333C12.925 17.7 13.2083 16.9833 13.1333 16.2583C12.5167 16.2833 11.75 16.6667 11.3083 17.2C10.9083 17.6583 10.5667 18.4 10.65 19.1ZM15.7 25.3083C15.6833 25.2917 14.0667 24.675 14.05 22.8083C14.0333 21.25 15.325 20.5 15.3833 20.4583C14.65 19.375 13.5167 19.2583 13.125 19.2333C12.1083 19.175 11.2417 19.8083 10.7583 19.8083C10.2667 19.8083 9.53333 19.2583 8.73333 19.275C7.69167 19.2917 6.71667 19.8833 6.19167 20.825C5.1 22.7083 5.90833 25.4917 6.96667 27.025C7.48333 27.7833 8.10833 28.6167 8.925 28.5833C9.7 28.55 10.0083 28.0833 10.9417 28.0833C11.8833 28.0833 12.15 28.5833 12.9667 28.575C13.8167 28.5583 14.3417 27.8167 14.8667 27.0583C15.4417 26.1917 15.6833 25.3583 15.7 25.3083ZM26.9833 20.8583C26.9833 18.6417 25.4417 17.125 23.2417 17.125H18.975V28.4917H20.7417V24.6083H23.1833C25.4167 24.6083 26.9833 23.075 26.9833 20.8583ZM34.4833 22.8333C34.4833 21.1917 33.1667 20.1333 31.15 20.1333C29.275 20.1333 27.8917 21.2083 27.8417 22.675H29.4333C29.5667 21.975 30.2167 21.5167 31.1 21.5167C32.1833 21.5167 32.7833 22.0167 32.7833 22.95V23.575L30.5833 23.7083C28.5333 23.8333 27.425 24.675 27.425 26.1333C27.425 27.6083 28.5667 28.5833 30.2083 28.5833C31.3167 28.5833 32.3417 28.025 32.8083 27.1333H32.8417V28.5H34.475V22.8333H34.4833ZM43 20.2417H41.2083L39.1333 26.9583H39.1L37.025 20.2417H35.1667L38.1583 28.5167L38 29.0167C37.7333 29.8667 37.2917 30.2 36.5083 30.2C36.3667 30.2 36.1 30.1833 35.9917 30.175V31.5417C36.0917 31.575 36.5333 31.5833 36.6667 31.5833C38.3917 31.5833 39.2 30.925 39.9083 28.9333L43 20.2417Z" fill="white"/>
</svg>
