<svg width="26" height="27" viewBox="0 0 26 27" fill="none" xmlns="http://www.w3.org/2000/svg">
<path d="M13.0011 4.98867C15.5459 2.70392 19.4784 2.77975 21.9299 5.23567C24.3804 7.69267 24.4649 11.6057 22.1856 14.158L12.9989 23.3577L3.81444 14.158C1.53511 11.6057 1.62069 7.68617 4.07011 5.23567C6.52386 2.783 10.4488 2.70067 13.0011 4.98867ZM20.3959 6.76642C18.7709 5.13925 16.1493 5.07317 14.4484 6.60067L13.0022 7.8985L11.5549 6.60175C9.84861 5.07209 7.23236 5.13925 5.60303 6.76859C3.98886 8.38275 3.90761 10.9665 5.39503 12.6738L13 20.2908L20.605 12.6749C22.0935 10.9665 22.0123 8.386 20.3959 6.76642Z" fill="black"/>
</svg>
