<svg width="48" height="48" viewBox="0 0 48 48" fill="none" xmlns="http://www.w3.org/2000/svg">
<path d="M40.2417 36.8582C40.2417 37.4248 39.8583 37.8332 39.3083 37.8332C38.7417 37.8332 38.375 37.3998 38.375 36.8582C38.375 36.3165 38.7417 35.8832 39.3083 35.8832C39.8583 35.8832 40.2417 36.3165 40.2417 36.8582ZM14.3417 35.8832C13.75 35.8832 13.4083 36.3165 13.4083 36.8582C13.4083 37.3998 13.75 37.8332 14.3417 37.8332C14.8833 37.8332 15.25 37.4248 15.25 36.8582C15.2417 36.3165 14.8833 35.8832 14.3417 35.8832ZM24.1333 35.8582C23.6833 35.8582 23.4083 36.1498 23.3417 36.5832H24.9333C24.8583 36.1082 24.5667 35.8582 24.1333 35.8582ZM33.1167 35.8832C32.55 35.8832 32.2083 36.3165 32.2083 36.8582C32.2083 37.3998 32.55 37.8332 33.1167 37.8332C33.6833 37.8332 34.05 37.4248 34.05 36.8582C34.05 36.3165 33.6833 35.8832 33.1167 35.8832ZM41.9417 38.0582C41.9417 38.0832 41.9667 38.0998 41.9667 38.1498C41.9667 38.1748 41.9417 38.1915 41.9417 38.2415C41.9167 38.2665 41.9167 38.2832 41.9 38.3082C41.875 38.3332 41.8583 38.3498 41.8083 38.3498C41.7833 38.3748 41.7667 38.3748 41.7167 38.3748C41.6917 38.3748 41.675 38.3748 41.625 38.3498C41.6 38.3498 41.5833 38.3248 41.5583 38.3082C41.5333 38.2832 41.5167 38.2665 41.5167 38.2415C41.4917 38.1998 41.4917 38.1748 41.4917 38.1498C41.4917 38.1082 41.4917 38.0832 41.5167 38.0582C41.5167 38.0165 41.5417 37.9915 41.5583 37.9665C41.5833 37.9415 41.6 37.9415 41.625 37.9248C41.6667 37.8998 41.6917 37.8998 41.7167 37.8998C41.7583 37.8998 41.7833 37.8998 41.8083 37.9248C41.85 37.9498 41.875 37.9498 41.9 37.9665C41.925 37.9832 41.9167 38.0165 41.9417 38.0582ZM41.7583 38.1748C41.8 38.1748 41.8 38.1498 41.825 38.1498C41.85 38.1248 41.85 38.1082 41.85 38.0832C41.85 38.0582 41.85 38.0415 41.825 38.0165C41.8 38.0165 41.7833 37.9915 41.7333 37.9915H41.6V38.2832H41.6667V38.1665H41.6917L41.7833 38.2832H41.85L41.7583 38.1748ZM48 9.4165V38.7498C48 40.9582 46.2083 42.7498 44 42.7498H4C1.79167 42.7498 0 40.9582 0 38.7498V9.4165C0 7.20817 1.79167 5.4165 4 5.4165H44C46.2083 5.4165 48 7.20817 48 9.4165ZM5.33333 21.0498C5.33333 27.4248 10.5083 32.5915 16.875 32.5915C19.1417 32.5915 21.3667 31.9082 23.25 30.6665C17.175 25.7248 17.2167 16.3998 23.25 11.4582C21.3667 10.2082 19.1417 9.53317 16.875 9.53317C10.5083 9.52484 5.33333 14.6998 5.33333 21.0498ZM24 30.1165C29.875 25.5332 29.85 16.5998 24 11.9915C18.15 16.5998 18.125 25.5415 24 30.1165ZM12.1417 36.4748C12.1417 35.7498 11.6667 35.2748 10.9167 35.2498C10.5333 35.2498 10.125 35.3665 9.85 35.7915C9.65 35.4498 9.30833 35.2498 8.83333 35.2498C8.51667 35.2498 8.2 35.3665 7.95 35.6998V35.3332H7.26667V38.3915H7.95C7.95 36.8165 7.74167 35.8748 8.7 35.8748C9.55 35.8748 9.38333 36.7248 9.38333 38.3915H10.0417C10.0417 36.8665 9.83333 35.8748 10.7917 35.8748C11.6417 35.8748 11.475 36.7082 11.475 38.3915H12.1583V36.4748H12.1417ZM15.8833 35.3332H15.225V35.6998C15 35.4248 14.6833 35.2498 14.25 35.2498C13.3917 35.2498 12.7333 35.9332 12.7333 36.8582C12.7333 37.7915 13.3917 38.4665 14.25 38.4665C14.6833 38.4665 15 38.3082 15.225 38.0165V38.3998H15.8833V35.3332ZM19.2583 37.4665C19.2583 36.2165 17.35 36.7832 17.35 36.1998C17.35 35.7248 18.3417 35.7998 18.8917 36.1082L19.1667 35.5665C18.3833 35.0582 16.65 35.0665 16.65 36.2498C16.65 37.4415 18.5583 36.9415 18.5583 37.4998C18.5583 38.0248 17.4333 37.9832 16.8333 37.5665L16.5417 38.0915C17.475 38.7248 19.2583 38.5915 19.2583 37.4665ZM22.2083 38.2415L22.025 37.6748C21.7083 37.8498 21.0083 38.0415 21.0083 37.3332V35.9498H22.1V35.3332H21.0083V34.3998H20.325V35.3332H19.6917V35.9415H20.325V37.3332C20.325 38.7998 21.7667 38.5332 22.2083 38.2415ZM23.3167 37.1248H25.6083C25.6083 35.7748 24.9917 35.2415 24.1583 35.2415C23.275 35.2415 22.6417 35.8998 22.6417 36.8498C22.6417 38.5582 24.525 38.8415 25.4583 38.0332L25.1417 37.5332C24.4917 38.0665 23.5083 38.0165 23.3167 37.1248ZM28.2417 35.3332C27.8583 35.1665 27.275 35.1832 26.975 35.6998V35.3332H26.2917V38.3915H26.975V36.6665C26.975 35.6998 27.7667 35.8248 28.0417 35.9665L28.2417 35.3332ZM29.125 36.8582C29.125 35.9082 30.0917 35.5998 30.85 36.1582L31.1667 35.6165C30.2 34.8582 28.4417 35.2748 28.4417 36.8665C28.4417 38.5165 30.3083 38.8498 31.1667 38.1165L30.85 37.5748C30.0833 38.1165 29.125 37.7915 29.125 36.8582ZM34.6833 35.3332H34V35.6998C33.3083 34.7832 31.5083 35.2998 31.5083 36.8582C31.5083 38.4582 33.375 38.9165 34 38.0165V38.3998H34.6833V35.3332ZM37.4917 35.3332C37.2917 35.2332 36.575 35.0915 36.225 35.6998V35.3332H35.5667V38.3915H36.225V36.6665C36.225 35.7498 36.975 35.8082 37.2917 35.9665L37.4917 35.3332ZM40.85 34.0915H40.1917V35.6998C39.5083 34.7915 37.7 35.2748 37.7 36.8582C37.7 38.4748 39.575 38.9082 40.1917 38.0165V38.3998H40.85V34.0915ZM41.4833 27.8332V28.2165H41.55V27.8332H41.7083V27.7665H41.325V27.8332H41.4833ZM42.0333 38.1498C42.0333 38.1082 42.0333 38.0582 42.0083 38.0165C41.9833 37.9915 41.9667 37.9498 41.9417 37.9248C41.9167 37.8998 41.875 37.8832 41.85 37.8582C41.8083 37.8582 41.7583 37.8332 41.7167 37.8332C41.6917 37.8332 41.65 37.8582 41.6 37.8582C41.5583 37.8832 41.5333 37.8998 41.5083 37.9248C41.4667 37.9498 41.4417 37.9915 41.4417 38.0165C41.4167 38.0582 41.4167 38.1082 41.4167 38.1498C41.4167 38.1748 41.4167 38.2165 41.4417 38.2665C41.4417 38.2915 41.4667 38.3332 41.5083 38.3582C41.5333 38.3832 41.55 38.3998 41.6 38.4248C41.6417 38.4498 41.6917 38.4498 41.7167 38.4498C41.7583 38.4498 41.8083 38.4498 41.85 38.4248C41.875 38.3998 41.9167 38.3832 41.9417 38.3582C41.9667 38.3332 41.9833 38.2915 42.0083 38.2665C42.0333 38.2165 42.0333 38.1748 42.0333 38.1498ZM42.3 27.7582H42.1833L42.05 28.0498L41.9167 27.7582H41.8V28.2082H41.8667V27.8665L42 28.1582H42.0917L42.2083 27.8665V28.2082H42.3V27.7582ZM42.6667 21.0498C42.6667 14.6998 37.4917 9.52484 31.125 9.52484C28.8583 9.52484 26.6333 10.2082 24.75 11.4498C30.7583 16.3915 30.85 25.7415 24.75 30.6582C26.6333 31.9082 28.875 32.5832 31.125 32.5832C37.4917 32.5915 42.6667 27.4248 42.6667 21.0498Z" fill="white"/>
</svg>
