<svg width="48" height="48" viewBox="0 0 48 48" fill="none" xmlns="http://www.w3.org/2000/svg">
<path d="M15.525 24.1835C15.525 25.2002 14.7167 25.9752 13.6917 25.9752C12.925 25.9752 12.3583 25.5418 12.3583 24.7252C12.3583 23.7085 13.15 22.8918 14.1667 22.8918C14.9417 22.8918 15.525 23.3668 15.525 24.1835ZM6.70833 20.1418H6.31667C6.19167 20.1418 6.06667 20.2252 6.05 20.3668L5.69167 22.5918L6.375 22.5668C7.29167 22.5668 8 22.4418 8.16667 21.3835C8.35833 20.2668 7.65 20.1418 6.70833 20.1418ZM30.375 20.1418H30C29.85 20.1418 29.75 20.2252 29.7333 20.3668L29.3833 22.5918L30.05 22.5668C31.1333 22.5668 31.8833 22.3168 31.8833 21.0668C31.875 20.1835 31.0833 20.1418 30.375 20.1418ZM48 9.3335V38.6668C48 40.8752 46.2083 42.6668 44 42.6668H4C1.79167 42.6668 0 40.8752 0 38.6668V9.3335C0 7.12516 1.79167 5.3335 4 5.3335H44C46.2083 5.3335 48 7.12516 48 9.3335ZM10.6917 20.6168C10.6917 18.8668 9.34167 18.2835 7.8 18.2835H4.46667C4.25833 18.2835 4.05 18.4502 4.03333 18.6752L2.66667 27.1835C2.64167 27.3502 2.76667 27.5168 2.93333 27.5168H4.51667C4.74167 27.5168 4.95 27.2752 4.975 27.0418L5.35 24.8252C5.43333 24.2252 6.45 24.4335 6.85 24.4335C9.23333 24.4335 10.6917 23.0168 10.6917 20.6168ZM17.7083 21.3502H16.125C15.8083 21.3502 15.7917 21.8085 15.775 22.0335C15.2917 21.3252 14.5917 21.2002 13.8 21.2002C11.7583 21.2002 10.2 22.9918 10.2 24.9668C10.2 26.5918 11.2167 27.6502 12.8417 27.6502C13.5917 27.6502 14.525 27.2418 15.05 26.6585C15.0083 26.7835 14.9667 27.0502 14.9667 27.1752C14.9667 27.3668 15.05 27.5085 15.2333 27.5085H16.6667C16.8917 27.5085 17.0833 27.2668 17.125 27.0335L17.975 21.6752C18 21.5168 17.875 21.3502 17.7083 21.3502ZM21.0833 29.5085L26.3917 21.7918C26.4333 21.7502 26.4333 21.7085 26.4333 21.6502C26.4333 21.5085 26.3083 21.3585 26.1667 21.3585H24.5667C24.425 21.3585 24.275 21.4418 24.1917 21.5668L21.9833 24.8168L21.0667 21.6918C21 21.5085 20.8167 21.3585 20.6083 21.3585H19.05C18.9083 21.3585 18.7833 21.5085 18.7833 21.6502C18.7833 21.7502 20.4083 26.3835 20.55 26.8252C20.325 27.1418 18.8417 29.2085 18.8417 29.4585C18.8417 29.6085 18.9667 29.7252 19.1083 29.7252H20.7083C20.8583 29.7168 21 29.6335 21.0833 29.5085ZM34.3583 20.6168C34.3583 18.8668 33.0083 18.2835 31.4667 18.2835H28.1583C27.9333 18.2835 27.725 18.4502 27.7 18.6752L26.35 27.1752C26.3333 27.3418 26.4583 27.5085 26.6167 27.5085H28.325C28.4917 27.5085 28.6167 27.3835 28.6583 27.2418L29.0333 24.8252C29.1167 24.2252 30.1333 24.4335 30.5333 24.4335C32.9 24.4335 34.3583 23.0168 34.3583 20.6168ZM41.375 21.3502H39.7917C39.475 21.3502 39.4583 21.8085 39.4333 22.0335C38.975 21.3252 38.2667 21.2002 37.4583 21.2002C35.4167 21.2002 33.8583 22.9918 33.8583 24.9668C33.8583 26.5918 34.875 27.6502 36.5 27.6502C37.275 27.6502 38.2083 27.2418 38.7083 26.6585C38.6833 26.7835 38.625 27.0502 38.625 27.1752C38.625 27.3668 38.7083 27.5085 38.8917 27.5085H40.3333C40.5583 27.5085 40.75 27.2668 40.7917 27.0335L41.6417 21.6752C41.6667 21.5168 41.5417 21.3502 41.375 21.3502ZM45.3333 18.5752C45.3333 18.4085 45.2083 18.2835 45.0667 18.2835H43.525C43.4 18.2835 43.275 18.3835 43.2583 18.5085L41.9083 27.1752L41.8833 27.2168C41.8833 27.3668 42.0083 27.5085 42.175 27.5085H43.55C43.7583 27.5085 43.9667 27.2668 43.9833 27.0335L45.3333 18.6002V18.5752ZM37.8333 22.8918C36.8167 22.8918 36.025 23.7002 36.025 24.7252C36.025 25.5335 36.6083 25.9752 37.375 25.9752C38.375 25.9752 39.1833 25.2085 39.1833 24.1835C39.1917 23.3668 38.6083 22.8918 37.8333 22.8918Z" fill="white"/>
</svg>
