<svg width="24" height="24" viewBox="0 0 24 24" fill="" xmlns="http://www.w3.org/2000/svg">
<path d="M12.0023 1.5C6.20391 1.5 1.50235 6.20156 1.50235 12C1.50235 16.2984 4.08985 19.9922 7.78829 21.6188C7.76016 20.8875 7.7836 20.0062 7.9711 19.2094C8.17266 18.3562 9.3211 13.4859 9.3211 13.4859C9.3211 13.4859 8.9836 12.8156 8.9836 11.8266C8.9836 10.2703 9.8836 9.10781 11.0086 9.10781C11.9649 9.10781 12.4242 9.825 12.4242 10.6828C12.4242 11.6437 11.8102 13.0781 11.4961 14.4094C11.2336 15.525 12.0539 16.4297 13.1555 16.4297C15.143 16.4297 16.4836 13.875 16.4836 10.8469C16.4836 8.54531 14.932 6.825 12.1149 6.825C8.93204 6.825 6.94454 9.20156 6.94454 11.8547C6.94454 12.7687 7.21641 13.4156 7.63829 13.9125C7.83047 14.1422 7.8586 14.2359 7.78829 14.4984C7.73672 14.6906 7.62422 15.1547 7.57266 15.3422C7.50235 15.6094 7.28673 15.7031 7.04766 15.6047C5.58047 15.0047 4.8961 13.4016 4.8961 11.5922C4.8961 8.61094 7.41329 5.03438 12.4008 5.03438C16.4086 5.03438 19.0477 7.93594 19.0477 11.0484C19.0477 15.1687 16.7555 18.2438 13.3805 18.2438C12.2461 18.2438 11.182 17.6297 10.8164 16.9359C10.8164 16.9359 10.207 19.3547 10.0758 19.8234C9.85547 20.6344 9.41954 21.4406 9.0211 22.0734C9.98761 22.3586 10.99 22.5038 11.9977 22.5047C17.7961 22.5047 22.4977 17.8031 22.4977 12.0047C22.4977 6.20625 17.8008 1.5 12.0023 1.5Z" fill=""/>
</svg>
