<svg width="26" height="27" viewBox="0 0 26 27" fill="none" xmlns="http://www.w3.org/2000/svg">
<path d="M19.5336 18.084L24.1735 22.7228L22.6406 24.2557L18.0017 19.6158C16.2757 20.9995 14.1288 21.752 11.9167 21.7489C6.53466 21.7489 2.16666 17.3809 2.16666 11.9989C2.16666 6.6169 6.53466 2.2489 11.9167 2.2489C17.2987 2.2489 21.6667 6.6169 21.6667 11.9989C21.6698 14.2111 20.9172 16.358 19.5336 18.084ZM17.3604 17.2802C18.7353 15.8663 19.5031 13.971 19.5 11.9989C19.5 7.80857 16.1059 4.41557 11.9167 4.41557C7.72632 4.41557 4.33332 7.80857 4.33332 11.9989C4.33332 16.1882 7.72632 19.5822 11.9167 19.5822C13.8888 19.5853 15.784 18.8175 17.1979 17.4427L17.3604 17.2802Z" fill="black"/>
</svg>
