<svg width="26" height="27" viewBox="0 0 26 27" fill="none" xmlns="http://www.w3.org/2000/svg">
<path d="M4.33335 17.4156V4.41557H2.16669V2.2489H5.41669C5.70401 2.2489 5.97955 2.36304 6.18272 2.5662C6.38588 2.76937 6.50002 3.04492 6.50002 3.33223V16.3322H19.9745L22.1412 7.66557H8.66669V5.4989H23.53C23.6947 5.49891 23.8572 5.53645 24.0052 5.60868C24.1532 5.68091 24.2827 5.78593 24.3841 5.91575C24.4854 6.04558 24.5557 6.19678 24.5898 6.35789C24.6239 6.51899 24.6209 6.68575 24.5809 6.84548L21.8725 17.6788C21.8138 17.9131 21.6786 18.121 21.4882 18.2696C21.2978 18.4182 21.0632 18.4989 20.8217 18.4989H5.41669C5.12937 18.4989 4.85382 18.3848 4.65065 18.1816C4.44749 17.9784 4.33335 17.7029 4.33335 17.4156ZM6.50002 24.9989C5.92538 24.9989 5.37428 24.7706 4.96796 24.3643C4.56163 23.958 4.33335 23.4069 4.33335 22.8322C4.33335 22.2576 4.56163 21.7065 4.96796 21.3002C5.37428 20.8938 5.92538 20.6656 6.50002 20.6656C7.07466 20.6656 7.62576 20.8938 8.03209 21.3002C8.43841 21.7065 8.66669 22.2576 8.66669 22.8322C8.66669 23.4069 8.43841 23.958 8.03209 24.3643C7.62576 24.7706 7.07466 24.9989 6.50002 24.9989ZM19.5 24.9989C18.9254 24.9989 18.3743 24.7706 17.968 24.3643C17.5616 23.958 17.3334 23.4069 17.3334 22.8322C17.3334 22.2576 17.5616 21.7065 17.968 21.3002C18.3743 20.8938 18.9254 20.6656 19.5 20.6656C20.0747 20.6656 20.6258 20.8938 21.0321 21.3002C21.4384 21.7065 21.6667 22.2576 21.6667 22.8322C21.6667 23.4069 21.4384 23.958 21.0321 24.3643C20.6258 24.7706 20.0747 24.9989 19.5 24.9989Z" fill="black"/>
</svg>
