<svg width="18" height="19" viewBox="0 0 18 19" fill="none" xmlns="http://www.w3.org/2000/svg">
<path d="M13.8515 17.375C13.7332 17.3755 13.6176 17.3386 13.5214 17.2696L8.99999 13.9916L4.47854 17.2696C4.38194 17.3396 4.26557 17.3772 4.14624 17.3767C4.02691 17.3763 3.91081 17.3379 3.81472 17.2672C3.71863 17.1964 3.64754 17.0969 3.61172 16.9831C3.5759 16.8693 3.57721 16.747 3.61546 16.634L5.37889 11.4108L0.808581 8.27661C0.709584 8.2088 0.634868 8.11111 0.595348 7.99781C0.555828 7.8845 0.553575 7.76154 0.588919 7.64686C0.624263 7.53219 0.695351 7.43183 0.791797 7.36044C0.888243 7.28904 1.00499 7.25036 1.12499 7.25005H6.76335L8.46491 2.01352C8.50156 1.90047 8.57309 1.80193 8.66922 1.73204C8.76534 1.66216 8.88114 1.62451 8.99999 1.62451C9.11884 1.62451 9.23463 1.66216 9.33076 1.73204C9.42689 1.80193 9.49841 1.90047 9.53506 2.01352L11.2366 7.25181H16.875C16.9951 7.25175 17.1121 7.29016 17.2089 7.36141C17.3056 7.43267 17.377 7.53303 17.4125 7.64778C17.4481 7.76254 17.446 7.88568 17.4065 7.99915C17.367 8.11262 17.2923 8.21047 17.1931 8.27837L12.6211 11.4108L14.3835 16.6325C14.412 16.7171 14.4201 16.8072 14.4069 16.8955C14.3937 16.9837 14.3598 17.0676 14.3078 17.1401C14.2558 17.2127 14.1874 17.2718 14.108 17.3127C14.0287 17.3535 13.9408 17.3749 13.8515 17.375Z" fill="black"/>
</svg>
