<svg width="48" height="48" viewBox="0 0 48 48" fill="none" xmlns="http://www.w3.org/2000/svg">
<path d="M41.0333 21.0668C40.2917 21.0668 39.475 21.6252 39.475 22.9585H42.5333C42.5333 21.6252 41.7583 21.0668 41.0333 21.0668ZM31.25 21.2835C30.5667 21.2835 30.1417 21.5252 29.8333 21.8668L29.85 26.2668C30.1417 26.5752 30.5583 26.8252 31.25 26.8252C32.3417 26.8252 33.075 25.6335 33.075 24.0418C33.075 22.4918 32.325 21.2752 31.25 21.2835ZM44 5.3335H4C1.79167 5.3335 0 7.12516 0 9.3335V38.6668C0 40.8752 1.79167 42.6668 4 42.6668H44C46.2083 42.6668 48 40.8752 48 38.6668V9.3335C48 7.12516 46.2083 5.3335 44 5.3335ZM10.1833 26.0918C10.1833 28.2252 8.49167 29.4335 6.025 29.4502C5.00833 29.4502 3.89167 29.2502 2.79167 28.7752V25.9502C3.79167 26.4835 5.05 26.8918 6.03333 26.8918C6.69167 26.8918 7.16667 26.7168 7.16667 26.1668C7.16667 24.7502 2.66667 25.2835 2.66667 22.0085C2.66667 19.9085 4.26667 18.6585 6.66667 18.6585C7.65 18.6585 8.625 18.8085 9.60833 19.2002V21.9835C8.70833 21.5002 7.56667 21.2252 6.66667 21.2252C6.04167 21.2252 5.65833 21.4085 5.65833 21.8668C5.65833 23.2002 10.1833 22.5668 10.1833 26.0918ZM15.9167 21.3752H13.6667V25.5835C13.6667 27.3252 15.5417 26.7835 15.9167 26.6335V29.0418C15.525 29.2585 14.8083 29.4335 13.8417 29.4335C12.0833 29.4335 10.7667 28.1418 10.7667 26.3918L10.7833 16.9002L13.675 16.2835V18.8502H15.9167V21.3752ZM22.0833 21.5752C21.7083 21.4502 20.525 21.2752 19.825 22.1918V29.2252H16.8667V18.8502H19.425L19.6083 19.7252C20.3 18.4502 21.6833 18.7085 22.075 18.8502H22.0833V21.5752ZM25.7583 29.2252H22.7833V18.8502H25.7583V29.2252ZM25.7583 17.3168L22.7833 17.9502V15.5418L25.7583 14.9085V17.3168ZM31.9333 29.4418C30.9 29.4418 30.2667 29.0002 29.8417 28.6918L29.8333 32.0418L26.875 32.6668V18.8502H29.4833L29.6333 19.5835C30.0417 19.2085 30.7917 18.6585 31.95 18.6585C34.025 18.6585 35.9833 20.5335 35.9833 23.9752C35.9833 27.7335 34.05 29.4335 31.9333 29.4418ZM45.3 25.1502H39.5083C39.6417 26.5335 40.6583 26.9418 41.8083 26.9418C42.9833 26.9418 43.9083 26.6918 44.7167 26.2835V28.6668C43.9083 29.1085 42.85 29.4335 41.4333 29.4335C38.55 29.4335 36.5333 27.6252 36.5333 24.0585C36.5333 21.0418 38.2417 18.6502 41.0583 18.6502C43.8667 18.6502 45.3333 21.0418 45.3333 24.0752C45.3333 24.3668 45.3083 24.9835 45.3 25.1502Z" fill="white"/>
</svg>
