<svg width="26" height="27" viewBox="0 0 26 27" fill="none" xmlns="http://www.w3.org/2000/svg">
<path d="M9.71206 19.5822C9.58328 20.4861 9.13271 21.3131 8.44313 21.9113C7.75355 22.5096 6.87126 22.839 5.95831 22.839C5.04537 22.839 4.16307 22.5096 3.47349 21.9113C2.78391 21.3131 2.33335 20.4861 2.20456 19.5822H1.08331V6.58223C1.08331 6.29492 1.19745 6.01937 1.40061 5.8162C1.60378 5.61304 1.87933 5.4989 2.16665 5.4989H17.3333C17.6206 5.4989 17.8962 5.61304 18.0993 5.8162C18.3025 6.01937 18.4166 6.29492 18.4166 6.58223V8.7489H21.6666L24.9166 13.1429V19.5822H22.7121C22.5833 20.4861 22.1327 21.3131 21.4431 21.9113C20.7535 22.5096 19.8713 22.839 18.9583 22.839C18.0454 22.839 17.1631 22.5096 16.4735 21.9113C15.7839 21.3131 15.3333 20.4861 15.2046 19.5822H9.71206ZM16.25 7.66557H3.24998V16.3864C3.67742 15.95 4.20396 15.6234 4.78479 15.4343C5.36563 15.2452 5.98355 15.1992 6.58597 15.3002C7.18839 15.4013 7.75748 15.6464 8.24481 16.0147C8.73213 16.383 9.12325 16.8636 9.3849 17.4156H15.5317C15.7137 17.0332 15.9575 16.6854 16.25 16.3864V7.66557ZM18.4166 14.1656H22.75V13.8568L20.5746 10.9156H18.4166V14.1656ZM18.9583 20.6656C19.3894 20.6656 19.8029 20.4943 20.1077 20.1895C20.4126 19.8846 20.5839 19.4711 20.5839 19.04C20.5839 18.6089 20.4126 18.1954 20.1077 17.8906C19.8029 17.5857 19.3894 17.4145 18.9583 17.4145C18.5272 17.4145 18.1137 17.5857 17.8089 17.8906C17.504 18.1954 17.3328 18.6089 17.3328 19.04C17.3328 19.4711 17.504 19.8846 17.8089 20.1895C18.1137 20.4943 18.5272 20.6656 18.9583 20.6656ZM7.58331 19.0406C7.58331 18.8272 7.54128 18.6159 7.45962 18.4187C7.37795 18.2216 7.25826 18.0424 7.10736 17.8915C6.95647 17.7406 6.77733 17.6209 6.58017 17.5393C6.38302 17.4576 6.17171 17.4156 5.95831 17.4156C5.74491 17.4156 5.53361 17.4576 5.33645 17.5393C5.1393 17.6209 4.96016 17.7406 4.80926 17.8915C4.65837 18.0424 4.53867 18.2216 4.45701 18.4187C4.37534 18.6159 4.33331 18.8272 4.33331 19.0406C4.33331 19.4715 4.50452 19.8849 4.80926 20.1896C5.11401 20.4944 5.52734 20.6656 5.95831 20.6656C6.38929 20.6656 6.80261 20.4944 7.10736 20.1896C7.41211 19.8849 7.58331 19.4715 7.58331 19.0406Z" fill="black"/>
</svg>
