<svg width="26" height="27" viewBox="0 0 26 27" fill="none" xmlns="http://www.w3.org/2000/svg">
<path d="M21.6666 23.9157H19.5V21.749C19.5 20.887 19.1576 20.0604 18.5481 19.4509C17.9386 18.8414 17.1119 18.499 16.25 18.499H9.74998C8.88803 18.499 8.06138 18.8414 7.45188 19.4509C6.84239 20.0604 6.49998 20.887 6.49998 21.749V23.9157H4.33331V21.749C4.33331 20.3124 4.904 18.9346 5.91982 17.9188C6.93564 16.903 8.31339 16.3323 9.74998 16.3323H16.25C17.6866 16.3323 19.0643 16.903 20.0801 17.9188C21.096 18.9346 21.6666 20.3124 21.6666 21.749V23.9157ZM13 14.1656C12.1464 14.1656 11.3012 13.9975 10.5125 13.6709C9.72392 13.3442 9.00737 12.8654 8.40378 12.2618C7.8002 11.6583 7.32142 10.9417 6.99476 10.1531C6.66811 9.36448 6.49998 8.51924 6.49998 7.66565C6.49998 6.81206 6.66811 5.96682 6.99476 5.17821C7.32142 4.38959 7.8002 3.67304 8.40378 3.06946C9.00737 2.46587 9.72392 1.98709 10.5125 1.66043C11.3012 1.33378 12.1464 1.16565 13 1.16565C14.7239 1.16565 16.3772 1.85047 17.5962 3.06946C18.8152 4.28844 19.5 5.94174 19.5 7.66565C19.5 9.38956 18.8152 11.0429 17.5962 12.2618C16.3772 13.4808 14.7239 14.1656 13 14.1656ZM13 11.999C14.1493 11.999 15.2515 11.5424 16.0641 10.7298C16.8768 9.91712 17.3333 8.81492 17.3333 7.66565C17.3333 6.51638 16.8768 5.41418 16.0641 4.60152C15.2515 3.78886 14.1493 3.33232 13 3.33232C11.8507 3.33232 10.7485 3.78886 9.93585 4.60152C9.12319 5.41418 8.66665 6.51638 8.66665 7.66565C8.66665 8.81492 9.12319 9.91712 9.93585 10.7298C10.7485 11.5424 11.8507 11.999 13 11.999Z" fill="black"/>
</svg>
