<svg width="48" height="48" viewBox="0 0 48 48" fill="none" xmlns="http://www.w3.org/2000/svg">
<path d="M39.175 21.9418C39.175 21.9418 39.8083 25.0418 39.95 25.6918H37.1667C37.4417 24.9502 38.5 22.0668 38.5 22.0668C38.4833 22.0918 38.775 21.3085 38.9417 20.8252L39.175 21.9418ZM48 9.3335V38.6668C48 40.8752 46.2083 42.6668 44 42.6668H4C1.79167 42.6668 0 40.8752 0 38.6668V9.3335C0 7.12516 1.79167 5.3335 4 5.3335H44C46.2083 5.3335 48 7.12516 48 9.3335ZM12.7083 30.2668L17.975 17.3335H14.4333L11.1583 26.1668L10.8 24.3752L9.63333 18.4252C9.44167 17.6002 8.85 17.3668 8.11667 17.3335H2.725L2.66667 17.5918C3.98333 17.9252 5.15833 18.4085 6.18333 19.0168L9.16667 30.2668H12.7083ZM20.575 30.2835L22.675 17.3335H19.325L17.2333 30.2835H20.575ZM32.2333 26.0502C32.25 24.5752 31.35 23.4502 29.425 22.5252C28.25 21.9335 27.5333 21.5335 27.5333 20.9252C27.55 20.3752 28.1417 19.8085 29.4583 19.8085C30.55 19.7835 31.35 20.0418 31.95 20.3002L32.25 20.4418L32.7083 17.6418C32.05 17.3835 31 17.0918 29.7083 17.0918C26.4 17.0918 24.075 18.8585 24.0583 21.3752C24.0333 23.2335 25.725 24.2668 26.9917 24.8918C28.2833 25.5252 28.725 25.9418 28.725 26.5002C28.7083 27.3668 27.675 27.7668 26.7167 27.7668C25.3833 27.7668 24.6667 27.5585 23.575 27.0752L23.1333 26.8668L22.6667 29.7752C23.45 30.1335 24.9 30.4502 26.4 30.4668C29.9167 30.4752 32.2083 28.7335 32.2333 26.0502ZM44 30.2835L41.3 17.3335H38.7083C37.9083 17.3335 37.3 17.5668 36.9583 18.4085L31.9833 30.2835H35.5C35.5 30.2835 36.075 28.6835 36.2 28.3418H40.5C40.6 28.8002 40.9 30.2835 40.9 30.2835H44Z" fill="white"/>
</svg>
