<svg width="116" height="131" viewBox="0 0 116 131" fill="none" xmlns="http://www.w3.org/2000/svg">
<g clip-path="url(#clip0_2_28)">
<g clip-path="url(#clip1_2_28)">
<path d="M7.59836 82.3673L8.94904 84.0558L8.2737 81.8605C8.10478 80.8473 6.92303 82.0294 7.59836 82.3673ZM9.11796 81.3541C9.62438 82.1983 10.1312 83.0426 10.1312 83.8869C10.1312 85.069 11.1443 85.5754 11.9882 85.9129C10.8061 84.5622 10.1308 80.8473 9.11796 81.3541ZM73.9562 9.76176C76.8264 9.76176 79.5282 9.42391 82.5677 10.0992C89.9972 11.9567 96.2445 15.6712 100.466 20.9057L112.285 39.817C112.792 44.5447 113.805 49.7792 113.636 55.5201C114.818 55.5201 114.649 53.8316 116 53.4938C114.649 56.8708 113.974 61.0921 113.636 65.9888C112.792 63.2871 113.636 59.2347 113.805 57.0397C112.623 58.8972 111.948 57.5462 111.948 56.7019C112.117 55.3512 111.441 55.5198 110.934 55.0134C109.077 53.3248 107.895 51.4674 106.545 48.5971C107.389 46.4022 107.558 43.194 104.856 41.5055C104.012 40.9991 102.999 40.1548 102.492 38.8038C101.817 36.9464 100.635 34.7514 100.972 31.8811C101.141 31.0369 98.4394 33.7386 96.9198 32.5565C90.3346 27.9977 83.7495 22.7632 75.8136 18.3729C71.5923 18.3729 68.5531 16.8533 67.0335 14.9959C65.6828 13.3074 66.6957 11.1124 68.722 10.9435C69.9041 10.9435 71.2548 10.6057 72.268 11.2814C72.4369 10.606 73.1123 9.76176 73.9562 9.76176ZM57.2402 5.87793L57.5781 6.04685C59.2666 6.3847 60.1108 8.74857 61.9679 7.9043C61.9679 9.08642 62.1369 10.2682 61.799 11.1124C61.2926 12.4631 59.7726 12.4631 58.5909 12.4631C47.278 11.7878 40.6928 16.5155 33.7701 20.5679C31.9127 21.75 29.8867 22.5943 28.3667 24.1139C21.1062 30.868 13.1704 37.1153 11.3129 49.6103L9.7933 63.456C9.62438 64.9756 7.93585 66.4952 8.2737 68.3526L9.45545 76.6263C8.27334 75.4442 7.598 76.9642 7.93585 77.6395C8.10478 78.1459 8.78011 79.8345 9.7933 78.3149C11.144 80.8476 12.495 85.7443 14.3521 87.9392C20.093 94.6933 27.5225 100.772 33.6012 106.851C35.1208 106.513 36.3029 106.513 36.6404 105.499C37.1468 106.513 36.134 107.526 35.2897 107.695C37.9915 109.383 41.0307 110.903 45.083 111.24C50.3175 111.578 55.2142 112.422 59.773 113.605C62.1369 112.929 64.5007 112.591 67.0335 112.423C67.8778 112.423 68.3842 111.072 69.3974 110.734L69.5663 109.045C70.5795 110.565 70.4106 108.539 69.7352 107.526C70.9173 108.539 71.2548 109.383 71.7612 110.059C71.7612 109.552 73.1119 107.695 73.1123 109.89L73.4498 107.695C73.9562 107.357 74.1251 109.552 74.6319 108.032C75.1383 106.513 76.1515 107.694 77.1646 107.188C76.8268 107.863 76.9957 109.214 78.1775 108.37L79.5285 107.188C80.3728 109.214 81.7235 108.37 82.3988 108.032C89.8282 103.305 97.2577 97.7325 104.349 92.1606L104.18 94.3555L105.025 91.6538C105.869 92.498 106.544 91.8227 106.882 91.3163C107.895 89.6278 109.246 87.9392 111.441 86.4196C108.739 93.6802 105.531 99.4211 101.479 104.149L99.7905 106.175C99.7905 107.357 99.4526 108.877 98.1019 109.045C97.4266 109.214 96.0756 108.708 95.0627 109.721C94.5563 110.396 96.2448 111.747 94.8938 110.734C93.7117 109.89 92.5299 110.734 91.1789 111.072C90.1657 111.41 91.8542 112.422 92.1921 113.098C92.5299 113.773 92.8674 114.449 92.6989 115.293L90.8414 113.267C88.6465 114.449 87.2954 116.644 85.438 118.332C84.5937 119.008 84.9316 120.19 84.9316 121.203C83.7495 121.203 82.3988 120.865 81.7234 121.54C81.217 122.216 81.3856 123.229 81.3856 124.242C79.6971 124.073 79.5282 121.54 78.0089 122.047C76.4893 122.385 74.8008 122.553 73.4498 123.398C74.4629 125.424 71.7612 124.242 72.0991 124.58C69.5663 123.06 67.3714 121.878 64.6696 122.891C58.9287 121.034 51.8371 121.878 46.6026 122.554C46.6026 121.709 46.7716 120.865 46.4337 120.696C46.0959 121.54 45.083 121.203 45.252 121.203C42.0438 119.008 38.8357 117.657 35.4587 115.8C32.4195 116.137 29.5488 114.617 28.7046 113.773C26.3407 111.578 23.639 112.76 21.444 112.254C16.7163 111.071 15.0278 106.175 14.521 102.798C14.1832 101.11 12.8325 100.434 12.3261 100.603C10.1312 93.5112 6.7541 87.095 4.05239 80.5098C3.37705 78.8213 3.54597 77.1328 3.54597 75.2753C4.39024 75.6132 5.2345 75.4442 5.06558 74.2625C4.22131 68.6905 2.1953 64.4692 0 60.4168C1.18211 54.6759 1.35067 47.9218 4.05239 42.8562C6.41625 38.2974 10.8065 35.9332 13.8457 32.0497C14.8589 30.699 14.8589 28.8416 15.8721 27.6598C19.2491 24.2828 22.6262 20.7368 26.3407 17.6976C28.0292 16.3469 30.0552 17.6976 32.588 17.1912C33.4323 14.152 36.8093 11.4503 40.0175 12.2945C41.3681 12.6324 44.0699 9.08642 44.9141 8.74857C46.2648 8.24216 45.5895 10.0992 45.5895 11.2814C48.7976 8.74857 53.1878 7.39789 57.2402 5.87793Z" fill="#6B7280"/>
<g clip-path="url(#clip2_2_28)">
<g clip-path="url(#clip3_2_28)">
<g clip-path="url(#clip4_2_28)">
<g clip-path="url(#clip5_2_28)">
<g clip-path="url(#clip6_2_28)">
<g clip-path="url(#clip7_2_28)">
<g clip-path="url(#clip8_2_28)">
<path d="M53.3545 77.0649C52.3335 77.0649 51.4742 76.8301 50.7765 76.3604C50.0788 75.8942 49.73 75.3037 49.73 74.589C49.73 73.6871 50.3171 72.7852 51.4912 71.8834C51.6954 71.7302 51.8485 71.6537 51.9506 71.6537C52.0527 71.6537 52.1038 71.6877 52.1038 71.7557C52.1038 71.9259 51.9677 72.062 51.6954 72.1641C50.7425 72.9299 50.266 73.7041 50.266 74.4869C50.266 75.0484 50.5213 75.5198 51.0318 75.901C51.5422 76.2855 52.1804 76.4778 52.9461 76.4778C54.6137 76.4778 56.1877 75.678 57.6682 74.0785C58.4339 73.2447 58.8168 72.2833 58.8168 71.1942C58.8168 70.1052 58.4084 69.2969 57.5916 68.7694C56.9109 68.2929 55.992 68.0547 54.8349 68.0547C53.1673 68.0547 51.4912 68.4716 49.8066 69.3054C47.7306 70.3094 45.8553 71.8698 44.1809 73.9866C42.5031 76.1069 41.6642 78.1454 41.6642 80.1023C41.6642 81.6508 42.1917 82.8454 43.2467 83.686C44.3017 84.53 45.612 84.952 47.1775 84.952C48.9643 84.952 50.7169 84.5181 52.4356 83.6502C53.7459 82.9696 54.8775 82.1018 55.8304 81.0467C56.1027 80.7404 56.3154 80.5873 56.4685 80.5873C56.5706 80.5873 56.6217 80.6758 56.6217 80.8527C56.6217 81.0331 56.5281 81.2169 56.3409 81.4041C55.439 82.357 54.1373 83.2759 52.4356 84.1607C50.3426 85.2668 48.2377 85.8198 46.1208 85.8198C44.0006 85.8198 42.4214 85.1222 41.3834 83.7268C40.6858 82.8079 40.3369 81.7104 40.3369 80.4341C40.3369 79.8726 40.405 79.2685 40.5411 78.6219C41.0006 76.4438 42.2087 74.3252 44.1656 72.2662C45.578 70.7858 47.2541 69.6321 49.194 68.8051C51.1339 67.9815 52.9716 67.5697 54.7073 67.5697C55.6262 67.5697 56.426 67.6803 57.1066 67.9015C58.9614 68.4801 59.8888 69.6457 59.8888 71.3984C59.8888 72.4704 59.574 73.3978 58.9444 74.1806C57.3789 76.1035 55.5156 77.0649 53.3545 77.0649ZM64.7385 78.7495C64.7385 79.3451 64.1685 80.3405 63.0283 81.7359C61.684 83.3865 60.5354 84.2118 59.5825 84.2118H59.1741C58.7317 84.2118 58.3829 83.9821 58.1276 83.5226C57.9234 83.1993 57.8213 82.842 57.8213 82.4506C57.8213 81.4296 58.5649 79.9951 60.0522 78.1471C61.5428 76.3025 62.7476 75.3803 63.6665 75.3803C64.5343 75.3803 64.9682 75.8397 64.9682 76.7586C64.9682 76.9968 64.9257 77.3031 64.8406 77.6775C64.8576 77.7285 65.0193 77.754 65.3256 77.754C65.6319 77.754 66.0998 77.5924 66.7294 77.2691C66.7124 77.5584 66.0403 77.9753 64.713 78.5198C64.73 78.5879 64.7385 78.6644 64.7385 78.7495ZM63.0794 77.4222C62.5008 77.4222 61.6789 78.1029 60.6137 79.4642C59.5519 80.8255 59.021 81.8295 59.021 82.4761C59.021 83.1227 59.2252 83.4461 59.6336 83.4461C60.3653 83.4461 61.2927 82.7824 62.4158 81.4551C63.5388 80.1278 64.1004 79.1749 64.1004 78.5964C63.8281 78.4432 63.4878 78.0518 63.0794 77.4222ZM75.6631 71.6792C75.6631 72.2067 75.5099 72.4704 75.2036 72.4704C75.1185 72.4704 75.0335 72.4024 74.9484 72.2662C74.7952 71.994 74.54 71.8578 74.1826 71.8578C73.3999 71.8578 72.6682 72.4194 71.9875 73.5425C71.8514 73.7637 71.426 74.5635 70.7113 75.9418H71.0176C72.8724 75.9418 74.1061 75.9163 74.7186 75.8652C74.7867 75.8822 74.8207 75.9163 74.8207 75.9673C74.8207 76.1035 74.2167 76.2906 73.0085 76.5289C71.8684 76.716 70.9325 76.8777 70.2008 77.0138C69.6733 78.1029 69.0352 79.3961 68.2864 80.8936C66.7549 83.7523 65.7425 85.5306 65.249 86.2282C63.7686 88.3383 62.3222 89.3933 60.9098 89.3933C60.4163 89.3933 59.9858 89.1857 59.6183 88.7705C59.2541 88.3519 59.0635 87.8873 59.0465 87.3769C59.0975 87.1727 59.1741 87.0706 59.2762 87.0706C59.3273 87.0706 59.3613 87.1301 59.3783 87.2492C59.4804 87.6917 59.6506 88.032 59.8888 88.2702C60.127 88.5084 60.3738 88.6276 60.629 88.6276C62.0754 88.6276 63.3942 87.7342 64.5854 85.9475C65.266 84.9265 66.1934 83.0887 67.3675 80.4341L68.7459 77.1159C67.0442 77.0989 66.1934 76.8947 66.1934 76.5033C66.1934 76.3332 66.2734 76.1885 66.4333 76.0694C66.5967 75.9503 66.7379 75.8907 66.857 75.8907L69.2564 75.9418C70.924 72.2322 72.4555 70.3774 73.8508 70.3774C74.3783 70.3774 74.9143 70.6327 75.4589 71.1432C75.595 71.2793 75.6631 71.458 75.6631 71.6792Z" fill="#6B7280"/>
</g>
</g>
<g clip-path="url(#clip9_2_28)">
<g clip-path="url(#clip10_2_28)">
<path d="M43.5479 97.242L43.5698 97.7222C43.0701 97.8241 42.6214 97.875 42.2237 97.875C41.8259 97.875 41.5048 97.8202 41.2603 97.7105C41.0148 97.6019 40.8256 97.4321 40.6927 97.2012C40.5589 96.9713 40.4667 96.7069 40.4162 96.4081C40.3648 96.1103 40.3391 95.7382 40.3391 95.2919C40.3391 94.8456 40.3648 94.4707 40.4162 94.167C40.4667 93.8643 40.5589 93.5966 40.6927 93.3637C40.8256 93.1309 41.0134 92.9611 41.2559 92.8544C41.4985 92.7477 41.8138 92.6943 42.2018 92.6943C42.5899 92.6943 43.0459 92.7477 43.5698 92.8544L43.5479 93.3273C43.058 93.24 42.6214 93.1964 42.2382 93.1964C41.7046 93.1964 41.3515 93.355 41.1788 93.6722C41.0071 93.9904 40.9212 94.5328 40.9212 95.2992C40.9212 95.6824 40.9372 95.9904 40.9692 96.2233C41.0003 96.4561 41.0619 96.6657 41.1541 96.8519C41.2462 97.0392 41.3811 97.1726 41.5586 97.2521C41.7352 97.3327 41.9947 97.3729 42.3372 97.3729C42.6787 97.3729 43.0823 97.3293 43.5479 97.242ZM44.9377 94.7971V97.8022H44.392V92.5779H44.9377V94.3678C45.3258 94.1835 45.6993 94.0913 46.0582 94.0913C46.5433 94.0913 46.8693 94.2223 47.0362 94.4843C47.204 94.7462 47.2879 95.2119 47.2879 95.8813V97.8022H46.7422V95.8958C46.7422 95.3914 46.6922 95.0455 46.5923 94.8583C46.4934 94.672 46.2838 94.5788 45.9636 94.5788C45.658 94.5788 45.3621 94.6346 45.0759 94.7462L44.9377 94.7971ZM48.845 97.8022H48.2993V94.1641H48.845V97.8022ZM48.845 93.3419H48.2993V92.7089H48.845V93.3419ZM51.252 94.0913C51.4121 94.0913 51.6837 94.1204 52.067 94.1787L52.2416 94.2005L52.2198 94.6443C51.8317 94.6007 51.5455 94.5788 51.3612 94.5788C50.9488 94.5788 50.6689 94.6768 50.5215 94.8728C50.373 95.0698 50.2988 95.4336 50.2988 95.9642C50.2988 96.4959 50.3682 96.866 50.5069 97.0746C50.6447 97.2832 50.9319 97.3875 51.3684 97.3875L52.227 97.322L52.2489 97.7731C51.7977 97.841 51.4606 97.875 51.2375 97.875C50.6699 97.875 50.2785 97.7295 50.0631 97.4384C49.8467 97.1474 49.7386 96.656 49.7386 95.9642C49.7386 95.2735 49.855 94.7884 50.0878 94.509C50.3207 94.2306 50.7087 94.0913 51.252 94.0913ZM55.1302 95.3065C55.1302 96.0438 55.2273 96.5735 55.4213 96.8956C55.6153 97.2187 55.9898 97.3802 56.5448 97.3802C57.1007 97.3802 57.4742 97.2225 57.6653 96.9072C57.8574 96.5919 57.9534 96.0632 57.9534 95.321C57.9534 94.5788 57.854 94.038 57.6551 93.6984C57.4562 93.3589 57.0837 93.1891 56.5375 93.1891C55.9922 93.1891 55.6212 93.3574 55.4242 93.6941C55.2282 94.0317 55.1302 94.5691 55.1302 95.3065ZM58.5355 95.321C58.5355 96.2184 58.3924 96.8684 58.1062 97.2711C57.82 97.6737 57.2995 97.875 56.5448 97.875C55.7909 97.875 55.2709 97.6688 54.9847 97.2565C54.6985 96.8442 54.5554 96.1951 54.5554 95.3094C54.5554 94.4246 54.701 93.7673 54.992 93.3375C55.2831 92.9087 55.7997 92.6943 56.5418 92.6943C57.284 92.6943 57.8016 92.9077 58.0946 93.3346C58.3885 93.7615 58.5355 94.4236 58.5355 95.321ZM60.0126 94.8481V97.8022H59.4669V94.1641H60.0053V94.4188C60.3982 94.2005 60.7742 94.0913 61.1331 94.0913C61.6182 94.0913 61.9442 94.2223 62.1111 94.4843C62.2789 94.7462 62.3628 95.2119 62.3628 95.8813V97.8022H61.8244V95.8958C61.8244 95.3914 61.7744 95.0455 61.6745 94.8583C61.5755 94.672 61.3636 94.5788 61.0386 94.5788C60.8833 94.5788 60.7194 94.6016 60.5467 94.6472C60.375 94.6938 60.243 94.7389 60.1509 94.7826L60.0126 94.8481ZM65.6284 97.8022H65.0681V92.7671H68.0805V93.2618H65.6284V95.2264H67.7021V95.7212H65.6284V97.8022ZM69.3466 97.8022H68.8008V94.1641H69.3466V97.8022ZM69.3466 93.3419H68.8008V92.7089H69.3466V93.3419ZM70.9401 97.8022H70.3943V94.1641H70.9328V94.6589C71.3548 94.3678 71.7987 94.1762 72.2643 94.0841V94.6371C72.0606 94.6759 71.8481 94.7365 71.6269 94.819C71.4067 94.9014 71.2384 94.9742 71.122 95.0373L70.9401 95.1318V97.8022ZM75.3116 97.3511L75.5226 97.3293L75.5372 97.7586C74.9842 97.8362 74.5112 97.875 74.1183 97.875C73.5944 97.875 73.2233 97.7232 73.0051 97.4195C72.7868 97.1168 72.6776 96.6453 72.6776 96.005C72.6776 94.7292 73.1845 94.0913 74.1984 94.0913C74.6883 94.0913 75.0545 94.2281 75.2971 94.5017C75.5396 94.7763 75.6609 95.207 75.6609 95.794L75.6318 96.2087H73.2306C73.2306 96.6113 73.3034 96.9097 73.4489 97.1037C73.5944 97.2977 73.8481 97.3948 74.21 97.3948C74.5709 97.3948 74.9381 97.3802 75.3116 97.3511ZM73.2233 95.7722H75.1152C75.1152 95.3259 75.0439 95.0106 74.9012 94.8262C74.7577 94.6419 74.5248 94.5497 74.2027 94.5497C73.8797 94.5497 73.6371 94.6468 73.4751 94.8408C73.3121 95.0348 73.2282 95.3453 73.2233 95.7722Z" fill="black"/>
</g>
</g>
</g>
</g>
<g clip-path="url(#clip11_2_28)">
<g clip-path="url(#clip12_2_28)">
<path d="M61.9323 53.1469C70.7811 38.8079 55.7376 32.625 55.7376 32.625C59.6068 35.852 60.9571 46.8297 53.8711 46.9751C48.8444 47.0781 49.7169 41.6879 50.2573 40.5507C49.6915 41.3526 45.8843 48.0931 47.4661 54.8919C49.0483 61.6909 58.6125 64.3851 58.6125 64.3851C56.634 58.4576 60.417 55.5812 61.9323 53.1469Z" fill="#FFDE00"/>
<path d="M65.9023 44.7244C66.6864 46.1818 65.0766 52.2817 62.7256 55.0593C58.3663 60.2218 59.741 62.8399 60.0814 64.0579C60.1351 63.9306 60.7007 63.3387 64.721 60.5841C73.4123 54.6438 65.9023 44.7244 65.9023 44.7244Z" fill="#FF0404"/>
<path d="M60.0911 64.0913C60.0883 64.0806 60.0843 64.0692 60.0815 64.0579C60.0665 64.0923 60.0911 64.0913 60.0911 64.0913Z" fill="#FF0404"/>
<path d="M50.2573 40.5471C50.3022 40.483 50.3301 40.4464 50.3301 40.4464C50.2994 40.4701 50.2767 40.5048 50.2573 40.5471Z" fill="#FF0404"/>
</g>
</g>
</g>
</g>
</g>
</g>
</g>
<defs>
<clipPath id="clip0_2_28">
<rect width="116" height="130.5" fill="white"/>
</clipPath>
<clipPath id="clip1_2_28">
<rect width="116" height="130.5" fill="white"/>
</clipPath>
<clipPath id="clip2_2_28">
<rect width="35.3261" height="65.25" fill="white" transform="translate(40.3369 32.625)"/>
</clipPath>
<clipPath id="clip3_2_28">
<rect width="35.3261" height="65.25" fill="white" transform="translate(40.3369 32.625)"/>
</clipPath>
<clipPath id="clip4_2_28">
<rect width="35.3261" height="65.25" fill="white" transform="translate(40.3369 32.625)"/>
</clipPath>
<clipPath id="clip5_2_28">
<rect width="35.3261" height="30.3053" fill="white" transform="translate(40.3369 67.5697)"/>
</clipPath>
<clipPath id="clip6_2_28">
<rect width="35.3261" height="30.3053" fill="white" transform="translate(40.3369 67.5697)"/>
</clipPath>
<clipPath id="clip7_2_28">
<rect width="35.3261" height="21.8236" fill="white" transform="translate(40.3369 67.5697)"/>
</clipPath>
<clipPath id="clip8_2_28">
<rect width="35.3261" height="21.8236" fill="white" transform="translate(40.3369 67.5697)"/>
</clipPath>
<clipPath id="clip9_2_28">
<rect width="35.3261" height="5.2971" fill="white" transform="translate(40.3369 92.5779)"/>
</clipPath>
<clipPath id="clip10_2_28">
<rect width="35.3261" height="5.2971" fill="white" transform="translate(40.3369 92.5779)"/>
</clipPath>
<clipPath id="clip11_2_28">
<rect width="21.8316" height="31.7601" fill="white" transform="translate(47.0842 32.625)"/>
</clipPath>
<clipPath id="clip12_2_28">
<rect width="21.8316" height="31.7601" fill="white" transform="translate(47.0842 32.625)"/>
</clipPath>
</defs>
</svg>
